<?xml version="1.0" encoding="iso-8859-1"?>
<!-- Uploaded to: SVG Repo, www.svgrepo.com, Generator: SVG Repo Mixer Tools -->
<svg version="1.1" id="Layer_1" xmlns="http://www.w3.org/2000/svg" xmlns:xlink="http://www.w3.org/1999/xlink" 
	 viewBox="0 0 512 512" xml:space="preserve">
<circle style="fill:#F4E3C3;" cx="256" cy="256" r="256"/>
<path style="fill:#F2CEAA;" d="M509.807,289.578L302.545,82.316l-46.401-13.648v154.433L83.609,398.222l104.719,104.719
	C209.887,508.835,232.572,512,256,512C386.003,512,493.361,415.094,509.807,289.578z"/>
<polygon style="fill:#F9B54C;" points="257.724,59.906 302.545,82.316 257.724,82.316 "/>
<rect x="253.414" y="59.475" style="fill:#935635;" width="5.172" height="82.747"/>
<polygon style="fill:#FF6472;" points="428.391,282.352 256,113.778 83.609,282.352 83.609,398.222 428.391,398.222 "/>
<polygon style="fill:#C75163;" points="428.391,282.352 256,113.778 255.426,114.34 255.426,398.222 428.391,398.222 "/>
<polygon style="fill:#D24146;" points="256,199.111 170.667,398.222 341.333,398.222 "/>
<polygon style="fill:#B7303A;" points="256,199.111 255.426,200.451 255.426,398.222 341.333,398.222 "/>
<polygon style="fill:#FF80AA;" points="256,199.111 142.222,341.333 170.667,398.222 "/>
<polygon style="fill:#EA6C9D;" points="256,199.111 369.778,341.333 341.333,398.222 "/>
</svg>